name C:\Users\u0101727\Documents\MyRepositories\upper-imu-dc\Results\main_tracking\Case_47\FLX03_orientations_groundFrame.mot
datacolumns 13
datarows 25
range 2.13000000 2.37000000
endheader 
time	radius_imu_[0][0]	radius_imu_[0][1]	radius_imu_[0][2]	radius_imu_[1][0]	radius_imu_[1][1]	radius_imu_[1][2]	radius_imu_[2][0]	radius_imu_[2][1]	radius_imu_[2][2]	radius_imu_x	radius_imu_y	radius_imu_z	
          2.13000000	          0.38648838	         -0.92036676	          0.05959662	         -0.43400278	         -0.12447285	          0.89227132	         -0.81379870	         -0.37071759	         -0.44754904	         -2.03571035	          0.05963196	          1.17322898	
          2.14000000	          0.39038451	         -0.91930664	          0.04975169	         -0.43942924	         -0.13857240	          0.88752444	         -0.80901291	         -0.36833814	         -0.45806674	         -2.04725450	          0.04977224	          1.16922130	
          2.15000000	          0.39452624	         -0.91802007	          0.03985229	         -0.44430519	         -0.15262114	          0.88277952	         -0.80432702	         -0.36598627	         -0.46809412	         -2.05835031	          0.03986284	          1.16490273	
          2.16000000	          0.39889229	         -0.91650966	          0.02991645	         -0.44865567	         -0.16660765	          0.87803757	         -0.79974560	         -0.36366460	         -0.47765576	         -2.06902426	          0.02992092	          1.16029298	
          2.17000000	          0.40346293	         -0.91477817	          0.01996409	         -0.45251207	         -0.18052168	          0.87329534	         -0.79526756	         -0.36137629	         -0.48678197	         -2.07930940	          0.01996542	          1.15541008	
          2.18000000	          0.40822039	         -0.91282845	          0.01001676	         -0.45591136	         -0.19435448	          0.86854543	         -0.79088618	         -0.35912471	         -0.49550832	         -2.08924489	          0.01001693	          1.15027012	
          2.19000000	          0.41314913	         -0.91066338	          0.00009748	         -0.45889537	         -0.20809887	          0.86377653	         -0.78658937	         -0.35691326	         -0.50387508	         -2.09887547	          0.00009748	          1.14488690	
          2.20000000	          0.41823610	         -0.90828582	         -0.00976944	         -0.46150986	         -0.22174934	          0.85897374	         -0.78236003	         -0.35474513	         -0.51192644	         -2.10825064	         -0.00976960	          1.13927180	
          2.21000000	          0.42347091	         -0.90569854	         -0.01955864	         -0.46380333	         -0.23530194	          0.85411912	         -0.77817663	         -0.35262324	         -0.51970953	         -2.11742364	         -0.01955989	          1.13343358	
          2.22000000	          0.42884583	         -0.90290423	         -0.02924397	         -0.46582560	         -0.24875410	          0.84919250	         -0.77401406	         -0.35055008	         -0.52727307	         -2.12644992	         -0.02924814	          1.12737842	
          2.23000000	          0.43435569	         -0.89990542	         -0.03879902	         -0.46762600	         -0.26210430	          0.84417253	         -0.76984483	         -0.34852771	         -0.53466567	         -2.13538522	         -0.03880876	          1.12111009	
          2.24000000	          0.43999753	         -0.89670460	         -0.04819784	         -0.46925113	         -0.27535172	          0.83903802	         -0.76564061	         -0.34655776	         -0.54193373	         -2.14428311	         -0.04821652	          1.11463022	
          2.25000000	          0.44577016	         -0.89330419	         -0.05741585	         -0.47074256	         -0.28849587	          0.83376950	         -0.76137402	         -0.34464148	         -0.54911915	         -2.15319230	         -0.05744744	          1.10793885	
          2.26000000	          0.45167358	         -0.88970664	         -0.06643097	         -0.47213446	         -0.30153625	          0.82835074	         -0.75702050	         -0.34277979	         -0.55625712	         -2.16215393	         -0.06647993	          1.10103495	
          2.27000000	          0.45770820	         -0.88591447	         -0.07522470	         -0.47345179	         -0.31447212	          0.82277013	         -0.75256003	         -0.34097337	         -0.56337426	         -2.17119935	         -0.07529583	          1.09391717	
          2.28000000	          0.46387427	         -0.88193030	         -0.08378305	         -0.47470911	         -0.32730240	          0.81702166	         -0.74797856	         -0.33922275	         -0.57048751	         -2.18034859	         -0.08388138	          1.08658443	
          2.29000000	          0.47017111	         -0.87775693	         -0.09209724	         -0.47591029	         -0.34002561	          0.81110541	         -0.74326881	         -0.33752831	         -0.57760377	         -2.18960979	         -0.09222793	          1.07903656	
          2.30000000	          0.47659662	         -0.87339729	         -0.10016402	         -0.47704901	         -0.35263991	          0.80502754	         -0.73843070	         -0.33589026	         -0.58472031	         -2.19897953	         -0.10033227	          1.07127482	
          2.31000000	          0.48314685	         -0.86885454	         -0.10798570	         -0.47811001	         -0.36514318	          0.79879990	         -0.73347116	         -0.33430861	         -0.59182583	         -2.20844390	         -0.10819667	          1.06330224	
          2.32000000	          0.48981574	         -0.86413203	         -0.11556974	         -0.47907086	         -0.37753309	          0.79243919	         -0.72840349	         -0.33278310	         -0.59890213	         -2.21798031	         -0.11582856	          1.05512388	
          2.33000000	          0.49659507	         -0.85923338	         -0.12292820	         -0.47990413	         -0.38980724	          0.78596586	         -0.72324641	         -0.33131302	         -0.60592600	         -2.22755969	         -0.12323993	          1.04674688	
          2.34000000	          0.50347450	         -0.85416242	         -0.13007686	         -0.48057971	         -0.40196324	          0.77940278	         -0.71802268	         -0.32989713	         -0.61287137	         -2.23714898	         -0.13044649	          1.03818032	
          2.35000000	          0.51044185	         -0.84892328	         -0.13703425	         -0.48106706	         -0.41399884	          0.77277387	         -0.71275774	         -0.32853346	         -0.61971136	         -2.24671363	         -0.13746680	          1.02943508	
          2.36000000	          0.51748333	         -0.84352036	         -0.14382075	         -0.48133725	         -0.42591203	          0.76610273	         -0.70747824	         -0.32721910	         -0.62642015	         -2.25621990	         -0.14432123	          1.02052359	
          2.37000000	          0.52458382	         -0.83795841	         -0.15045767	         -0.48136452	         -0.43770111	          0.75941157	         -0.70221080	         -0.32595004	         -0.63297437	         -2.26563671	         -0.15103119	          1.01145950	
